<svg xmlns="http://www.w3.org/2000/svg" viewBox="0 0 227.76 191.53"><title>Asset 1</title><path d="M143.78,157s30.55,2.78,47.22,30.55c0,0,41.66-47.21,33.33-100S185.44,7,160.44,7s-27.77-5.55-27.77-5.55S68.1,8,54.55,21.39,13.23,43.14,4.9,79.25s19.44,63.88,19.44,63.88S85.45,184.8,143.78,157Z" style="fill:#e5d891"/><path d="M18.79,51.47s25,27.78,58.33,27.78,83.32-13.89,83.32-13.89,36.11,27.78,2.78,33.33S66,176.46,13.23,59.81Z" style="fill:#9e93d8"/><path d="M146.56,154.24l33.33,19.45,33.33-38.89L191,54.25H149.33s13.89,72.22-11.11,80.55-88.88-11.11-88.88,16.67L52.12,157S102.11,179.24,146.56,154.24Z" style="fill:#dba993"/><path d="M13.23,59.81s13.89,41.66,44.44,50,91.66-30.55,105.55-13.89,0,44.45-27.77,44.45S32.67,120.91,32.67,120.91Z" style="fill:#e5d891"/><path d="M199.33,29.25s-27.78,0-27.78,16.67S193.77,79.25,191,104.25s-5.56,55.55-16.67,63.88l13.89,16.67,11.11-8.34,19.44-30.55,5.56-44.44-5.56-41.66Z" style="fill:#92cddd"/><path d="M16,51.47s50,52.78,91.66,36.11,47.22-16.66,61.11-13.89S196.55,32,160.44,40.36,127.11,73.69,93.78,62.58s-25-47.22-25-47.22Z" style="fill:#91e2aa"/><path d="M63.23,18.14S49.34,45.92,74.34,57,116,82,143.78,62.58,207.66,45.92,199.33,32,160.44,7,160.44,7L127.11,1.48,74.34,12.59Z" style="fill:#d692e0"/><path d="M174.33,138.73s-61.26,37.36-106.09,20.92S11,125.29,8,108.85s4-59.27,35.36-76.21S109.58,1.26,145.94,7.74s54.79,21.41,62.76,37.85,20.92,49.31,11,82.19-12.95,40.84-30.88,55.78c0,0-12.95-23.91-36.86-27.89l-4.49,3s35.37,13,41.35,32.87c0,0,33.87-24.9,37.85-63.26s-2.49-78.2-20.42-96.63S158.89-2.23,122,.26,48.31,18.69,26.9,38.12A81.69,81.69,0,0,0,0,97.39c0,14.94,9.46,57.28,64.75,67.24s83.68-5.47,109.58-22.91Z"/><path d="M83.18,125.29s35.86-.5,54.29-18.43c0,0,5,16.93,3,25.4,0,0-15.94-.5-30.38-6,0,0-13,4-23.91,2.49Z"/><path d="M125.58,53.14c-1.55-10.85,7.83-15.66,15.66-15.66S153.76,50,147.5,57.83,127.15,64.1,125.58,53.14Z"/><path d="M47.79,53.79c0-8.94,1.27-14,7.66-14s8.94,10.22,8.94,14,1.27,8.94-7.67,8.94S47.79,53.79,47.79,53.79Z"/></svg>